STARTFONT 2.1

COMMENT 
COMMENT  This is the Tektite font, out of the VFONT utility by clySmic
COMMENT  Software. It's been heavily modified: the 0 and the * have been
COMMENT  altered, a load of new characters have been drawn, it's had a
COMMENT  format conversion done on it, and to add insult to injury I then
COMMENT  reduced its width by a pixel.
COMMENT 
COMMENT  All these modifications were done by Simon Tatham, who asserts
COMMENT  no copyright.
COMMENT 
COMMENT  The original VFONT copyright says:
COMMENT 
COMMENT    VFONT is copyright 1991, 1993, 1998 by clySmic software, and is
COMMENT    released as "Freeware".
COMMENT 
COMMENT    You may copy the program and distribute it without charge.  You may
COMMENT    not sell or otherwise charge for VFONT. However, users' groups may
COMMENT    charge a small fee (not to exceed $10) for media and postage.
COMMENT 

FONT -clySmic-Tektite-Medium-R-SemiCondensed--15-140-75-75-C-80-ISO8859-1
SIZE 14 75 75
FONTBOUNDINGBOX 8 15 0 -3

STARTPROPERTIES 24
  FONTNAME_REGISTRY ""
  FOUNDRY "clySmic"
  FAMILY_NAME "Tektite"
  WEIGHT_NAME "Medium"
  SLANT "R"
  SETWIDTH_NAME "SemiCondensed"
  ADD_STYLE_NAME ""
  PIXEL_SIZE 15
  POINT_SIZE 140
  RESOLUTION_X 75
  RESOLUTION_Y 75
  SPACING "C"
  AVERAGE_WIDTH 80
  CHARSET_REGISTRY "ISO8859"
  CHARSET_ENCODING "1"
  COPYRIGHT "Portions copyright 1991,1993,1998 clySmic Software."
  FONT "-clySmic-Tektite-Medium-R-SemiCondensed--15-140-75-75-C-80-ISO8859-1"
  WEIGHT 10
  RESOLUTION 103
  X_HEIGHT 12
  QUAD_WIDTH 8
  DEFAULT_CHAR 0
  FONT_ASCENT 12
  FONT_DESCENT 3
ENDPROPERTIES

CHARS 224

STARTCHAR C000
ENCODING 0
SWIDTH 548 0
DWIDTH 8 0
BBX 8 15 0 -3
BITMAP
00
00
00
00
00
00
00
00
00
00
00
00
00
00
00
ENDCHAR

STARTCHAR C001
ENCODING 1
SWIDTH 548 0
DWIDTH 8 0
BBX 8 15 0 -3
BITMAP
00
00
00
00
08
1C
3E
7F
3E
1C
08
00
00
00
00
ENDCHAR

STARTCHAR C002
ENCODING 2
SWIDTH 548 0
DWIDTH 8 0
BBX 8 15 0 -3
BITMAP
55
AA
55
55
AA
55
55
AA
55
55
AA
55
55
AA
55
ENDCHAR

STARTCHAR C003
ENCODING 3
SWIDTH 548 0
DWIDTH 8 0
BBX 8 15 0 -3
BITMAP
00
00
6C
6C
7C
6C
6C
00
0F
06
06
06
00
00
00
ENDCHAR

STARTCHAR C004
ENCODING 4
SWIDTH 548 0
DWIDTH 8 0
BBX 8 15 0 -3
BITMAP
00
00
7C
60
78
60
60
1F
18
1E
18
18
00
00
00
ENDCHAR

STARTCHAR C005
ENCODING 5
SWIDTH 548 0
DWIDTH 8 0
BBX 8 15 0 -3
BITMAP
00
00
3C
60
60
3C
00
1E
1B
1E
1B
1B
00
00
00
ENDCHAR

STARTCHAR C006
ENCODING 6
SWIDTH 548 0
DWIDTH 8 0
BBX 8 15 0 -3
BITMAP
00
00
60
60
60
78
00
1F
18
1E
18
18
00
00
00
ENDCHAR

STARTCHAR C007
ENCODING 7
SWIDTH 548 0
DWIDTH 8 0
BBX 8 15 0 -3
BITMAP
00
00
3C
66
66
3C
00
00
00
00
00
00
00
00
00
ENDCHAR

STARTCHAR C010
ENCODING 8
SWIDTH 548 0
DWIDTH 8 0
BBX 8 15 0 -3
BITMAP
00
00
00
00
18
18
7E
18
18
00
00
7E
00
00
00
ENDCHAR

STARTCHAR C011
ENCODING 9
SWIDTH 548 0
DWIDTH 8 0
BBX 8 15 0 -3
BITMAP
00
00
66
76
7E
6E
66
00
18
18
18
1F
00
00
00
ENDCHAR

STARTCHAR C012
ENCODING 10
SWIDTH 548 0
DWIDTH 8 0
BBX 8 15 0 -3
BITMAP
00
00
6C
6C
38
38
10
00
3F
0C
0C
0C
00
00
00
ENDCHAR

STARTCHAR C013
ENCODING 11
SWIDTH 548 0
DWIDTH 8 0
BBX 8 15 0 -3
BITMAP
18
18
18
18
18
18
18
18
F8
00
00
00
00
00
00
ENDCHAR

STARTCHAR C014
ENCODING 12
SWIDTH 548 0
DWIDTH 8 0
BBX 8 15 0 -3
BITMAP
00
00
00
00
00
00
00
00
F8
18
18
18
18
18
18
ENDCHAR

STARTCHAR C015
ENCODING 13
SWIDTH 548 0
DWIDTH 8 0
BBX 8 15 0 -3
BITMAP
00
00
00
00
00
00
00
00
1F
18
18
18
18
18
18
ENDCHAR

STARTCHAR C016
ENCODING 14
SWIDTH 548 0
DWIDTH 8 0
BBX 8 15 0 -3
BITMAP
18
18
18
18
18
18
18
18
1F
00
00
00
00
00
00
ENDCHAR

STARTCHAR C017
ENCODING 15
SWIDTH 548 0
DWIDTH 8 0
BBX 8 15 0 -3
BITMAP
18
18
18
18
18
18
18
18
FF
18
18
18
18
18
18
ENDCHAR

STARTCHAR C020
ENCODING 16
SWIDTH 548 0
DWIDTH 8 0
BBX 8 15 0 -3
BITMAP
00
00
FF
00
00
00
00
00
00
00
00
00
00
00
00
ENDCHAR

STARTCHAR C021
ENCODING 17
SWIDTH 548 0
DWIDTH 8 0
BBX 8 15 0 -3
BITMAP
00
00
00
00
00
FF
00
00
00
00
00
00
00
00
00
ENDCHAR

STARTCHAR C022
ENCODING 18
SWIDTH 548 0
DWIDTH 8 0
BBX 8 15 0 -3
BITMAP
00
00
00
00
00
00
00
00
FF
00
00
00
00
00
00
ENDCHAR

STARTCHAR C023
ENCODING 19
SWIDTH 548 0
DWIDTH 8 0
BBX 8 15 0 -3
BITMAP
00
00
00
00
00
00
00
00
00
00
00
FF
00
00
00
ENDCHAR

STARTCHAR C024
ENCODING 20
SWIDTH 548 0
DWIDTH 8 0
BBX 8 15 0 -3
BITMAP
00
00
00
00
00
00
00
00
00
00
00
00
00
00
FF
ENDCHAR

STARTCHAR C025
ENCODING 21
SWIDTH 548 0
DWIDTH 8 0
BBX 8 15 0 -3
BITMAP
18
18
18
18
18
18
18
18
1F
18
18
18
18
18
18
ENDCHAR

STARTCHAR C026
ENCODING 22
SWIDTH 548 0
DWIDTH 8 0
BBX 8 15 0 -3
BITMAP
18
18
18
18
18
18
18
18
F8
18
18
18
18
18
18
ENDCHAR

STARTCHAR C027
ENCODING 23
SWIDTH 548 0
DWIDTH 8 0
BBX 8 15 0 -3
BITMAP
18
18
18
18
18
18
18
18
FF
00
00
00
00
00
00
ENDCHAR

STARTCHAR C030
ENCODING 24
SWIDTH 548 0
DWIDTH 8 0
BBX 8 15 0 -3
BITMAP
00
00
00
00
00
00
00
00
FF
18
18
18
18
18
18
ENDCHAR

STARTCHAR C031
ENCODING 25
SWIDTH 548 0
DWIDTH 8 0
BBX 8 15 0 -3
BITMAP
18
18
18
18
18
18
18
18
18
18
18
18
18
18
18
ENDCHAR

STARTCHAR C032
ENCODING 26
SWIDTH 548 0
DWIDTH 8 0
BBX 8 15 0 -3
BITMAP
00
00
00
0C
18
30
60
30
18
0C
00
7E
00
00
00
ENDCHAR

STARTCHAR C033
ENCODING 27
SWIDTH 548 0
DWIDTH 8 0
BBX 8 15 0 -3
BITMAP
00
00
00
30
18
0C
06
0C
18
30
00
7E
00
00
00
ENDCHAR

STARTCHAR C034
ENCODING 28
SWIDTH 548 0
DWIDTH 8 0
BBX 8 15 0 -3
BITMAP
00
00
00
00
00
3F
76
36
36
36
36
36
00
00
00
ENDCHAR

STARTCHAR C035
ENCODING 29
SWIDTH 548 0
DWIDTH 8 0
BBX 8 15 0 -3
BITMAP
00
00
00
06
0C
7F
0C
18
7F
18
30
00
00
00
00
ENDCHAR

STARTCHAR C036
ENCODING 30
SWIDTH 548 0
DWIDTH 8 0
BBX 8 15 0 -3
BITMAP
00
00
1E
33
30
78
30
78
30
30
33
3E
00
00
00
ENDCHAR

STARTCHAR C037
ENCODING 31
SWIDTH 548 0
DWIDTH 8 0
BBX 8 15 0 -3
BITMAP
00
00
00
00
00
00
18
3C
3C
18
00
00
00
00
00
ENDCHAR

STARTCHAR space
ENCODING 32
SWIDTH 548 0
DWIDTH 8 0
BBX 8 15 0 -3
BITMAP
00
00
00
00
00
00
00
00
00
00
00
00
00
00
00
ENDCHAR

STARTCHAR exclam
ENCODING 33
SWIDTH 548 0
DWIDTH 8 0
BBX 8 15 0 -3
BITMAP
00
00
18
18
18
18
18
18
18
00
18
18
00
00
00
ENDCHAR

STARTCHAR quotedbl
ENCODING 34
SWIDTH 548 0
DWIDTH 8 0
BBX 8 15 0 -3
BITMAP
00
00
1B
36
6C
00
00
00
00
00
00
00
00
00
00
ENDCHAR

STARTCHAR numbersign
ENCODING 35
SWIDTH 548 0
DWIDTH 8 0
BBX 8 15 0 -3
BITMAP
00
00
1B
1B
7F
36
36
36
36
7F
6C
6C
00
00
00
ENDCHAR

STARTCHAR dollar
ENCODING 36
SWIDTH 548 0
DWIDTH 8 0
BBX 8 15 0 -3
BITMAP
00
08
3E
6B
68
38
0C
0E
0B
6B
6B
3E
08
00
00
ENDCHAR

STARTCHAR percent
ENCODING 37
SWIDTH 548 0
DWIDTH 8 0
BBX 8 15 0 -3
BITMAP
00
00
30
69
5B
36
0C
18
36
6D
0B
06
00
00
00
ENDCHAR

STARTCHAR ampersand
ENCODING 38
SWIDTH 548 0
DWIDTH 8 0
BBX 8 15 0 -3
BITMAP
00
00
1C
36
36
1C
38
6C
67
66
6E
3B
00
00
00
ENDCHAR

STARTCHAR apostrophe
ENCODING 39
SWIDTH 548 0
DWIDTH 8 0
BBX 8 15 0 -3
BITMAP
00
00
0C
18
30
00
00
00
00
00
00
00
00
00
00
ENDCHAR

STARTCHAR parenleft
ENCODING 40
SWIDTH 548 0
DWIDTH 8 0
BBX 8 15 0 -3
BITMAP
00
06
0C
18
18
30
30
30
30
18
18
0C
06
00
00
ENDCHAR

STARTCHAR parenright
ENCODING 41
SWIDTH 548 0
DWIDTH 8 0
BBX 8 15 0 -3
BITMAP
00
30
18
0C
0C
06
06
06
06
0C
0C
18
30
00
00
ENDCHAR

STARTCHAR asterisk
ENCODING 42
SWIDTH 548 0
DWIDTH 8 0
BBX 8 15 0 -3
BITMAP
00
00
00
00
00
36
1C
7F
1C
36
00
00
00
00
00
ENDCHAR

STARTCHAR plus
ENCODING 43
SWIDTH 548 0
DWIDTH 8 0
BBX 8 15 0 -3
BITMAP
00
00
00
00
00
18
18
7E
18
18
00
00
00
00
00
ENDCHAR

STARTCHAR comma
ENCODING 44
SWIDTH 548 0
DWIDTH 8 0
BBX 8 15 0 -3
BITMAP
00
00
00
00
00
00
00
00
00
00
0C
18
30
00
00
ENDCHAR

STARTCHAR minus
ENCODING 45
SWIDTH 548 0
DWIDTH 8 0
BBX 8 15 0 -3
BITMAP
00
00
00
00
00
00
00
7E
00
00
00
00
00
00
00
ENDCHAR

STARTCHAR period
ENCODING 46
SWIDTH 548 0
DWIDTH 8 0
BBX 8 15 0 -3
BITMAP
00
00
00
00
00
00
00
00
00
00
18
18
00
00
00
ENDCHAR

STARTCHAR slash
ENCODING 47
SWIDTH 548 0
DWIDTH 8 0
BBX 8 15 0 -3
BITMAP
00
00
03
02
06
04
0C
08
18
10
30
20
60
00
00
ENDCHAR

STARTCHAR 0
ENCODING 48
SWIDTH 548 0
DWIDTH 8 0
BBX 8 15 0 -3
BITMAP
00
00
1E
33
67
6F
6B
7B
73
63
66
3C
00
00
00
ENDCHAR

STARTCHAR 1
ENCODING 49
SWIDTH 548 0
DWIDTH 8 0
BBX 8 15 0 -3
BITMAP
00
00
0C
1C
3C
6C
0C
0C
0C
0C
0C
0C
00
00
00
ENDCHAR

STARTCHAR 2
ENCODING 50
SWIDTH 548 0
DWIDTH 8 0
BBX 8 15 0 -3
BITMAP
00
00
1E
33
63
03
06
0C
18
30
63
7F
00
00
00
ENDCHAR

STARTCHAR 3
ENCODING 51
SWIDTH 548 0
DWIDTH 8 0
BBX 8 15 0 -3
BITMAP
00
00
7F
66
0C
18
3E
03
03
63
66
3C
00
00
00
ENDCHAR

STARTCHAR 4
ENCODING 52
SWIDTH 548 0
DWIDTH 8 0
BBX 8 15 0 -3
BITMAP
00
00
06
0E
1E
1E
36
67
7E
76
06
06
00
00
00
ENDCHAR

STARTCHAR 5
ENCODING 53
SWIDTH 548 0
DWIDTH 8 0
BBX 8 15 0 -3
BITMAP
00
00
0F
78
60
6E
7B
03
03
63
66
3C
00
00
00
ENDCHAR

STARTCHAR 6
ENCODING 54
SWIDTH 548 0
DWIDTH 8 0
BBX 8 15 0 -3
BITMAP
00
00
1E
33
63
60
6E
7B
63
63
66
3C
00
00
00
ENDCHAR

STARTCHAR 7
ENCODING 55
SWIDTH 548 0
DWIDTH 8 0
BBX 8 15 0 -3
BITMAP
00
00
7F
63
06
06
0C
0C
18
18
18
18
00
00
00
ENDCHAR

STARTCHAR 8
ENCODING 56
SWIDTH 548 0
DWIDTH 8 0
BBX 8 15 0 -3
BITMAP
00
00
1C
36
66
3C
1E
33
63
63
66
3C
00
00
00
ENDCHAR

STARTCHAR 9
ENCODING 57
SWIDTH 548 0
DWIDTH 8 0
BBX 8 15 0 -3
BITMAP
00
00
1E
33
63
63
6F
3B
03
63
66
3C
00
00
00
ENDCHAR

STARTCHAR colon
ENCODING 58
SWIDTH 548 0
DWIDTH 8 0
BBX 8 15 0 -3
BITMAP
00
00
00
00
18
18
00
00
00
18
18
00
00
00
00
ENDCHAR

STARTCHAR semicolon
ENCODING 59
SWIDTH 548 0
DWIDTH 8 0
BBX 8 15 0 -3
BITMAP
00
00
00
00
18
18
00
00
00
18
18
30
00
00
00
ENDCHAR

STARTCHAR less
ENCODING 60
SWIDTH 548 0
DWIDTH 8 0
BBX 8 15 0 -3
BITMAP
00
00
06
0C
18
30
60
60
30
18
0C
06
00
00
00
ENDCHAR

STARTCHAR equal
ENCODING 61
SWIDTH 548 0
DWIDTH 8 0
BBX 8 15 0 -3
BITMAP
00
00
00
00
00
7F
00
00
7F
00
00
00
00
00
00
ENDCHAR

STARTCHAR greater
ENCODING 62
SWIDTH 548 0
DWIDTH 8 0
BBX 8 15 0 -3
BITMAP
00
00
60
30
18
0C
06
06
0C
18
30
60
00
00
00
ENDCHAR

STARTCHAR question
ENCODING 63
SWIDTH 548 0
DWIDTH 8 0
BBX 8 15 0 -3
BITMAP
00
00
1E
33
63
06
0C
18
18
00
18
18
00
00
00
ENDCHAR

STARTCHAR at
ENCODING 64
SWIDTH 548 0
DWIDTH 8 0
BBX 8 15 0 -3
BITMAP
00
00
1E
33
67
6B
6B
6B
6E
68
66
7C
30
00
00
ENDCHAR

STARTCHAR A
ENCODING 65
SWIDTH 548 0
DWIDTH 8 0
BBX 8 15 0 -3
BITMAP
00
00
0C
0C
1C
16
36
3E
3A
63
63
63
00
00
00
ENDCHAR

STARTCHAR B
ENCODING 66
SWIDTH 548 0
DWIDTH 8 0
BBX 8 15 0 -3
BITMAP
00
00
0E
1B
73
66
7C
77
63
66
7C
70
00
00
00
ENDCHAR

STARTCHAR C
ENCODING 67
SWIDTH 548 0
DWIDTH 8 0
BBX 8 15 0 -3
BITMAP
00
00
0E
1B
30
60
60
60
60
60
33
1E
00
00
00
ENDCHAR

STARTCHAR D
ENCODING 68
SWIDTH 548 0
DWIDTH 8 0
BBX 8 15 0 -3
BITMAP
00
00
7C
66
63
63
63
63
63
66
6C
78
00
00
00
ENDCHAR

STARTCHAR E
ENCODING 69
SWIDTH 548 0
DWIDTH 8 0
BBX 8 15 0 -3
BITMAP
00
00
0F
78
60
60
6E
78
60
60
6F
78
00
00
00
ENDCHAR

STARTCHAR F
ENCODING 70
SWIDTH 548 0
DWIDTH 8 0
BBX 8 15 0 -3
BITMAP
00
00
0F
78
60
60
6E
78
60
60
60
60
00
00
00
ENDCHAR

STARTCHAR G
ENCODING 71
SWIDTH 548 0
DWIDTH 8 0
BBX 8 15 0 -3
BITMAP
00
00
1E
33
60
60
60
6F
63
63
36
1C
00
00
00
ENDCHAR

STARTCHAR H
ENCODING 72
SWIDTH 548 0
DWIDTH 8 0
BBX 8 15 0 -3
BITMAP
00
00
63
63
63
63
6F
7B
63
63
63
63
00
00
00
ENDCHAR

STARTCHAR I
ENCODING 73
SWIDTH 548 0
DWIDTH 8 0
BBX 8 15 0 -3
BITMAP
00
00
0E
1C
0C
0C
0C
0C
0C
0C
0E
1C
00
00
00
ENDCHAR

STARTCHAR J
ENCODING 74
SWIDTH 548 0
DWIDTH 8 0
BBX 8 15 0 -3
BITMAP
00
00
03
03
03
03
03
03
63
63
33
1E
00
00
00
ENDCHAR

STARTCHAR K
ENCODING 75
SWIDTH 548 0
DWIDTH 8 0
BBX 8 15 0 -3
BITMAP
00
00
63
66
6C
78
70
70
78
6C
66
63
00
00
00
ENDCHAR

STARTCHAR L
ENCODING 76
SWIDTH 548 0
DWIDTH 8 0
BBX 8 15 0 -3
BITMAP
00
00
60
60
60
60
60
60
60
60
6F
78
00
00
00
ENDCHAR

STARTCHAR M
ENCODING 77
SWIDTH 548 0
DWIDTH 8 0
BBX 8 15 0 -3
BITMAP
00
00
63
63
77
7F
7B
6B
63
63
63
63
00
00
00
ENDCHAR

STARTCHAR N
ENCODING 78
SWIDTH 548 0
DWIDTH 8 0
BBX 8 15 0 -3
BITMAP
00
00
63
63
73
7B
7B
6F
6F
67
63
63
00
00
00
ENDCHAR

STARTCHAR O
ENCODING 79
SWIDTH 548 0
DWIDTH 8 0
BBX 8 15 0 -3
BITMAP
00
00
1E
33
63
63
63
63
63
63
66
3C
00
00
00
ENDCHAR

STARTCHAR P
ENCODING 80
SWIDTH 548 0
DWIDTH 8 0
BBX 8 15 0 -3
BITMAP
00
00
0E
1B
73
63
66
7C
70
60
60
60
00
00
00
ENDCHAR

STARTCHAR Q
ENCODING 81
SWIDTH 548 0
DWIDTH 8 0
BBX 8 15 0 -3
BITMAP
00
00
1E
33
63
63
63
73
7B
6E
6C
3C
06
03
00
ENDCHAR

STARTCHAR R
ENCODING 82
SWIDTH 548 0
DWIDTH 8 0
BBX 8 15 0 -3
BITMAP
00
00
0E
1B
73
63
66
7C
78
6C
66
63
00
00
00
ENDCHAR

STARTCHAR S
ENCODING 83
SWIDTH 548 0
DWIDTH 8 0
BBX 8 15 0 -3
BITMAP
00
00
3E
63
60
30
1C
06
03
63
63
3E
00
00
00
ENDCHAR

STARTCHAR T
ENCODING 84
SWIDTH 548 0
DWIDTH 8 0
BBX 8 15 0 -3
BITMAP
00
00
0F
78
18
18
18
18
18
18
18
18
00
00
00
ENDCHAR

STARTCHAR U
ENCODING 85
SWIDTH 548 0
DWIDTH 8 0
BBX 8 15 0 -3
BITMAP
00
00
63
63
63
63
63
63
66
66
66
3C
00
00
00
ENDCHAR

STARTCHAR V
ENCODING 86
SWIDTH 548 0
DWIDTH 8 0
BBX 8 15 0 -3
BITMAP
00
00
63
63
63
63
36
36
3C
1C
18
10
00
00
00
ENDCHAR

STARTCHAR W
ENCODING 87
SWIDTH 548 0
DWIDTH 8 0
BBX 8 15 0 -3
BITMAP
00
00
63
63
63
63
6B
6B
6B
7F
77
63
00
00
00
ENDCHAR

STARTCHAR X
ENCODING 88
SWIDTH 548 0
DWIDTH 8 0
BBX 8 15 0 -3
BITMAP
00
00
63
63
36
36
1C
1C
36
36
63
63
00
00
00
ENDCHAR

STARTCHAR Y
ENCODING 89
SWIDTH 548 0
DWIDTH 8 0
BBX 8 15 0 -3
BITMAP
00
00
63
63
66
36
3C
18
18
18
18
18
00
00
00
ENDCHAR

STARTCHAR Z
ENCODING 90
SWIDTH 548 0
DWIDTH 8 0
BBX 8 15 0 -3
BITMAP
00
00
0F
7B
06
0C
0C
18
18
30
6F
78
00
00
00
ENDCHAR

STARTCHAR bracketleft
ENCODING 91
SWIDTH 548 0
DWIDTH 8 0
BBX 8 15 0 -3
BITMAP
00
3E
30
30
30
30
30
30
30
30
30
30
3E
00
00
ENDCHAR

STARTCHAR backslash
ENCODING 92
SWIDTH 548 0
DWIDTH 8 0
BBX 8 15 0 -3
BITMAP
00
00
60
20
30
10
18
08
0C
04
06
02
03
00
00
ENDCHAR

STARTCHAR bracketright
ENCODING 93
SWIDTH 548 0
DWIDTH 8 0
BBX 8 15 0 -3
BITMAP
00
3E
06
06
06
06
06
06
06
06
06
06
3E
00
00
ENDCHAR

STARTCHAR asciicircum
ENCODING 94
SWIDTH 548 0
DWIDTH 8 0
BBX 8 15 0 -3
BITMAP
00
0C
1E
33
60
00
00
00
00
00
00
00
00
00
00
ENDCHAR

STARTCHAR underscore
ENCODING 95
SWIDTH 548 0
DWIDTH 8 0
BBX 8 15 0 -3
BITMAP
00
00
00
00
00
00
00
00
00
00
00
00
00
7F
00
ENDCHAR

STARTCHAR grave
ENCODING 96
SWIDTH 548 0
DWIDTH 8 0
BBX 8 15 0 -3
BITMAP
00
00
18
0C
06
00
00
00
00
00
00
00
00
00
00
ENDCHAR

STARTCHAR a
ENCODING 97
SWIDTH 548 0
DWIDTH 8 0
BBX 8 15 0 -3
BITMAP
00
00
00
00
00
1E
33
0F
3B
63
6F
3B
00
00
00
ENDCHAR

STARTCHAR b
ENCODING 98
SWIDTH 548 0
DWIDTH 8 0
BBX 8 15 0 -3
BITMAP
00
00
60
60
60
6E
7B
63
63
66
6C
78
00
00
00
ENDCHAR

STARTCHAR c
ENCODING 99
SWIDTH 548 0
DWIDTH 8 0
BBX 8 15 0 -3
BITMAP
00
00
00
00
00
0E
1B
30
60
60
63
3E
00
00
00
ENDCHAR

STARTCHAR d
ENCODING 100
SWIDTH 548 0
DWIDTH 8 0
BBX 8 15 0 -3
BITMAP
00
00
03
03
03
0F
3B
63
63
67
6F
3B
00
00
00
ENDCHAR

STARTCHAR e
ENCODING 101
SWIDTH 548 0
DWIDTH 8 0
BBX 8 15 0 -3
BITMAP
00
00
00
00
00
1E
33
66
7C
60
63
3E
00
00
00
ENDCHAR

STARTCHAR f
ENCODING 102
SWIDTH 548 0
DWIDTH 8 0
BBX 8 15 0 -3
BITMAP
00
00
0E
1B
18
18
1E
78
18
18
18
18
00
00
00
ENDCHAR

STARTCHAR g
ENCODING 103
SWIDTH 548 0
DWIDTH 8 0
BBX 8 15 0 -3
BITMAP
00
00
00
00
00
1F
33
63
63
67
6F
3B
03
63
3E
ENDCHAR

STARTCHAR h
ENCODING 104
SWIDTH 548 0
DWIDTH 8 0
BBX 8 15 0 -3
BITMAP
00
00
60
60
60
6E
7B
73
63
63
63
63
00
00
00
ENDCHAR

STARTCHAR i
ENCODING 105
SWIDTH 548 0
DWIDTH 8 0
BBX 8 15 0 -3
BITMAP
00
00
0C
0C
00
0C
0C
0C
0C
0C
0C
0C
00
00
00
ENDCHAR

STARTCHAR j
ENCODING 106
SWIDTH 548 0
DWIDTH 8 0
BBX 8 15 0 -3
BITMAP
00
00
06
06
00
06
06
06
06
06
06
06
66
66
3C
ENDCHAR

STARTCHAR k
ENCODING 107
SWIDTH 548 0
DWIDTH 8 0
BBX 8 15 0 -3
BITMAP
00
00
60
60
60
63
66
6C
78
7C
66
63
00
00
00
ENDCHAR

STARTCHAR l
ENCODING 108
SWIDTH 548 0
DWIDTH 8 0
BBX 8 15 0 -3
BITMAP
00
00
1C
0C
0C
0C
0C
0C
0C
0C
0C
0C
00
00
00
ENDCHAR

STARTCHAR m
ENCODING 109
SWIDTH 548 0
DWIDTH 8 0
BBX 8 15 0 -3
BITMAP
00
00
00
00
00
76
6B
6B
6B
63
63
63
00
00
00
ENDCHAR

STARTCHAR n
ENCODING 110
SWIDTH 548 0
DWIDTH 8 0
BBX 8 15 0 -3
BITMAP
00
00
00
00
00
6E
7B
73
63
63
63
63
00
00
00
ENDCHAR

STARTCHAR o
ENCODING 111
SWIDTH 548 0
DWIDTH 8 0
BBX 8 15 0 -3
BITMAP
00
00
00
00
00
1E
33
63
63
63
66
3C
00
00
00
ENDCHAR

STARTCHAR p
ENCODING 112
SWIDTH 548 0
DWIDTH 8 0
BBX 8 15 0 -3
BITMAP
00
00
00
00
00
6E
7B
73
63
63
66
7C
60
60
60
ENDCHAR

STARTCHAR q
ENCODING 113
SWIDTH 548 0
DWIDTH 8 0
BBX 8 15 0 -3
BITMAP
00
00
00
00
00
3B
6F
67
63
63
33
1F
03
03
03
ENDCHAR

STARTCHAR r
ENCODING 114
SWIDTH 548 0
DWIDTH 8 0
BBX 8 15 0 -3
BITMAP
00
00
00
00
00
6E
7B
73
60
60
60
60
00
00
00
ENDCHAR

STARTCHAR s
ENCODING 115
SWIDTH 548 0
DWIDTH 8 0
BBX 8 15 0 -3
BITMAP
00
00
00
00
00
3E
63
38
0E
03
63
3E
00
00
00
ENDCHAR

STARTCHAR t
ENCODING 116
SWIDTH 548 0
DWIDTH 8 0
BBX 8 15 0 -3
BITMAP
00
00
08
18
18
1E
78
18
18
1B
1E
0C
00
00
00
ENDCHAR

STARTCHAR u
ENCODING 117
SWIDTH 548 0
DWIDTH 8 0
BBX 8 15 0 -3
BITMAP
00
00
00
00
00
63
63
63
63
67
6F
3B
00
00
00
ENDCHAR

STARTCHAR v
ENCODING 118
SWIDTH 548 0
DWIDTH 8 0
BBX 8 15 0 -3
BITMAP
00
00
00
00
00
63
63
63
36
3C
1C
0C
00
00
00
ENDCHAR

STARTCHAR w
ENCODING 119
SWIDTH 548 0
DWIDTH 8 0
BBX 8 15 0 -3
BITMAP
00
00
00
00
00
63
63
63
6B
6B
7F
63
00
00
00
ENDCHAR

STARTCHAR x
ENCODING 120
SWIDTH 548 0
DWIDTH 8 0
BBX 8 15 0 -3
BITMAP
00
00
00
00
00
63
36
16
1C
34
36
63
00
00
00
ENDCHAR

STARTCHAR y
ENCODING 121
SWIDTH 548 0
DWIDTH 8 0
BBX 8 15 0 -3
BITMAP
00
00
00
00
00
63
63
63
63
63
36
1E
06
6C
38
ENDCHAR

STARTCHAR z
ENCODING 122
SWIDTH 548 0
DWIDTH 8 0
BBX 8 15 0 -3
BITMAP
00
00
00
00
00
7F
06
0C
18
30
60
7F
00
00
00
ENDCHAR

STARTCHAR braceleft
ENCODING 123
SWIDTH 548 0
DWIDTH 8 0
BBX 8 15 0 -3
BITMAP
00
0E
18
18
18
18
70
70
18
18
18
18
0E
00
00
ENDCHAR

STARTCHAR bar
ENCODING 124
SWIDTH 548 0
DWIDTH 8 0
BBX 8 15 0 -3
BITMAP
00
18
18
18
18
18
18
18
18
18
18
18
18
00
00
ENDCHAR

STARTCHAR braceright
ENCODING 125
SWIDTH 548 0
DWIDTH 8 0
BBX 8 15 0 -3
BITMAP
00
70
18
18
18
18
0E
0E
18
18
18
18
70
00
00
ENDCHAR

STARTCHAR asciitilde
ENCODING 126
SWIDTH 548 0
DWIDTH 8 0
BBX 8 15 0 -3
BITMAP
00
00
00
00
00
00
3B
6E
00
00
00
00
00
00
00
ENDCHAR

STARTCHAR C177
ENCODING 127
SWIDTH 548 0
DWIDTH 8 0
BBX 8 15 0 -3
BITMAP
00
00
00
00
00
00
00
00
00
00
00
00
00
00
00
ENDCHAR

STARTCHAR nobreakspace
ENCODING 160
SWIDTH 548 0
DWIDTH 8 0
BBX 8 15 0 -3
BITMAP
00
00
00
00
00
00
00
00
00
00
00
00
00
00
00
ENDCHAR

STARTCHAR exclamdown
ENCODING 161
SWIDTH 548 0
DWIDTH 8 0
BBX 8 15 0 -3
BITMAP
00
00
18
18
00
18
18
18
18
18
18
18
00
00
00
ENDCHAR

STARTCHAR cent
ENCODING 162
SWIDTH 548 0
DWIDTH 8 0
BBX 8 15 0 -3
BITMAP
00
00
00
08
08
0E
1B
38
68
68
6B
3E
08
08
00
ENDCHAR

STARTCHAR sterling
ENCODING 163
SWIDTH 548 0
DWIDTH 8 0
BBX 8 15 0 -3
BITMAP
00
00
1E
33
30
78
30
78
30
30
33
3E
00
00
00
ENDCHAR

STARTCHAR currency
ENCODING 164
SWIDTH 548 0
DWIDTH 8 0
BBX 8 15 0 -3
BITMAP
00
00
00
63
3E
1E
36
36
3C
3E
63
00
00
00
00
ENDCHAR

STARTCHAR yen
ENCODING 165
SWIDTH 548 0
DWIDTH 8 0
BBX 8 15 0 -3
BITMAP
00
00
63
63
66
36
3C
18
7E
18
7E
18
18
00
00
ENDCHAR

STARTCHAR brokenbar
ENCODING 166
SWIDTH 548 0
DWIDTH 8 0
BBX 8 15 0 -3
BITMAP
00
18
18
18
18
18
00
00
18
18
18
18
18
00
00
ENDCHAR

STARTCHAR section
ENCODING 167
SWIDTH 548 0
DWIDTH 8 0
BBX 8 15 0 -3
BITMAP
00
00
3E
60
7C
36
66
66
6C
3E
06
7C
00
00
00
ENDCHAR

STARTCHAR diaeresis
ENCODING 168
SWIDTH 548 0
DWIDTH 8 0
BBX 8 15 0 -3
BITMAP
66
66
00
00
00
00
00
00
00
00
00
00
00
00
00
ENDCHAR

STARTCHAR copyright
ENCODING 169
SWIDTH 548 0
DWIDTH 8 0
BBX 8 15 0 -3
BITMAP
00
00
00
1E
21
4D
51
51
55
49
42
3C
00
00
00
ENDCHAR

STARTCHAR ordfeminine
ENCODING 170
SWIDTH 548 0
DWIDTH 8 0
BBX 8 15 0 -3
BITMAP
00
00
1E
33
0F
3B
63
6F
3B
00
00
7F
00
00
00
ENDCHAR

STARTCHAR guillemotleft
ENCODING 171
SWIDTH 548 0
DWIDTH 8 0
BBX 8 15 0 -3
BITMAP
00
00
00
00
01
1B
36
6C
6C
36
1B
00
00
00
00
ENDCHAR

STARTCHAR notsign
ENCODING 172
SWIDTH 548 0
DWIDTH 8 0
BBX 8 15 0 -3
BITMAP
00
00
00
00
00
00
7E
06
06
06
00
00
00
00
00
ENDCHAR

STARTCHAR hyphen
ENCODING 173
SWIDTH 548 0
DWIDTH 8 0
BBX 8 15 0 -3
BITMAP
00
00
00
00
00
00
00
7E
00
00
00
00
00
00
00
ENDCHAR

STARTCHAR registered
ENCODING 174
SWIDTH 548 0
DWIDTH 8 0
BBX 8 15 0 -3
BITMAP
00
00
00
1E
21
4D
55
59
55
55
42
3C
00
00
00
ENDCHAR

STARTCHAR macron
ENCODING 175
SWIDTH 548 0
DWIDTH 8 0
BBX 8 15 0 -3
BITMAP
00
00
00
7E
00
00
00
00
00
00
00
00
00
00
00
ENDCHAR

STARTCHAR degree
ENCODING 176
SWIDTH 548 0
DWIDTH 8 0
BBX 8 15 0 -3
BITMAP
00
00
3C
66
66
3C
00
00
00
00
00
00
00
00
00
ENDCHAR

STARTCHAR plusminus
ENCODING 177
SWIDTH 548 0
DWIDTH 8 0
BBX 8 15 0 -3
BITMAP
00
00
00
00
18
18
7E
18
18
00
00
7E
00
00
00
ENDCHAR

STARTCHAR twosuperior
ENCODING 178
SWIDTH 548 0
DWIDTH 8 0
BBX 8 15 0 -3
BITMAP
00
00
3C
66
0C
18
32
7E
00
00
00
00
00
00
00
ENDCHAR

STARTCHAR threesuperior
ENCODING 179
SWIDTH 548 0
DWIDTH 8 0
BBX 8 15 0 -3
BITMAP
00
00
7E
06
1C
06
66
3C
00
00
00
00
00
00
00
ENDCHAR

STARTCHAR acute
ENCODING 180
SWIDTH 548 0
DWIDTH 8 0
BBX 8 15 0 -3
BITMAP
0C
18
30
00
00
00
00
00
00
00
00
00
00
00
00
ENDCHAR

STARTCHAR mu
ENCODING 181
SWIDTH 548 0
DWIDTH 8 0
BBX 8 15 0 -3
BITMAP
00
00
00
00
00
33
33
33
33
37
3F
3B
30
30
60
ENDCHAR

STARTCHAR paragraph
ENCODING 182
SWIDTH 548 0
DWIDTH 8 0
BBX 8 15 0 -3
BITMAP
00
00
3C
7F
7B
7B
7B
3B
1F
1B
1B
1B
00
00
00
ENDCHAR

STARTCHAR periodcentered
ENCODING 183
SWIDTH 548 0
DWIDTH 8 0
BBX 8 15 0 -3
BITMAP
00
00
00
00
00
00
18
3C
3C
18
00
00
00
00
00
ENDCHAR

STARTCHAR cedilla
ENCODING 184
SWIDTH 548 0
DWIDTH 8 0
BBX 8 15 0 -3
BITMAP
00
00
00
00
00
00
00
00
00
00
00
00
06
0C
78
ENDCHAR

STARTCHAR onesuperior
ENCODING 185
SWIDTH 548 0
DWIDTH 8 0
BBX 8 15 0 -3
BITMAP
00
00
18
38
18
18
18
18
00
00
00
00
00
00
00
ENDCHAR

STARTCHAR masculine
ENCODING 186
SWIDTH 548 0
DWIDTH 8 0
BBX 8 15 0 -3
BITMAP
00
00
1E
33
63
63
63
66
3C
00
00
7F
00
00
00
ENDCHAR

STARTCHAR guillemotright
ENCODING 187
SWIDTH 548 0
DWIDTH 8 0
BBX 8 15 0 -3
BITMAP
00
00
00
00
00
6C
36
1B
1B
36
6C
40
00
00
00
ENDCHAR

STARTCHAR onequarter
ENCODING 188
SWIDTH 548 0
DWIDTH 8 0
BBX 8 15 0 -3
BITMAP
00
30
70
31
33
36
0C
18
36
6E
57
3E
06
06
00
ENDCHAR

STARTCHAR onehalf
ENCODING 189
SWIDTH 548 0
DWIDTH 8 0
BBX 8 15 0 -3
BITMAP
00
30
70
31
33
36
0C
18
30
6E
5B
06
0D
1F
00
ENDCHAR

STARTCHAR threequarters
ENCODING 190
SWIDTH 548 0
DWIDTH 8 0
BBX 8 15 0 -3
BITMAP
00
70
18
31
1B
76
0C
18
36
6E
D7
BE
06
06
00
ENDCHAR

STARTCHAR questiondown
ENCODING 191
SWIDTH 548 0
DWIDTH 8 0
BBX 8 15 0 -3
BITMAP
00
00
0C
0C
00
0C
0C
18
30
63
66
3C
00
00
00
ENDCHAR

STARTCHAR Agrave
ENCODING 192
SWIDTH 548 0
DWIDTH 8 0
BBX 8 15 0 -3
BITMAP
30
18
0C
0C
1C
14
36
36
3E
63
63
63
00
00
00
ENDCHAR

STARTCHAR Aacute
ENCODING 193
SWIDTH 548 0
DWIDTH 8 0
BBX 8 15 0 -3
BITMAP
0C
18
30
0C
1C
14
36
36
3E
63
63
63
00
00
00
ENDCHAR

STARTCHAR Acircumflex
ENCODING 194
SWIDTH 548 0
DWIDTH 8 0
BBX 8 15 0 -3
BITMAP
0C
1E
30
0C
1C
14
36
36
3E
63
63
63
00
00
00
ENDCHAR

STARTCHAR Atilde
ENCODING 195
SWIDTH 548 0
DWIDTH 8 0
BBX 8 15 0 -3
BITMAP
00
3B
6E
0C
1C
14
36
36
3E
63
63
63
00
00
00
ENDCHAR

STARTCHAR Adiaeresis
ENCODING 196
SWIDTH 548 0
DWIDTH 8 0
BBX 8 15 0 -3
BITMAP
33
33
0C
0C
1C
14
36
36
3E
63
63
63
00
00
00
ENDCHAR

STARTCHAR Aring
ENCODING 197
SWIDTH 548 0
DWIDTH 8 0
BBX 8 15 0 -3
BITMAP
0C
12
12
0C
1C
14
36
36
3E
63
63
63
00
00
00
ENDCHAR

STARTCHAR AE
ENCODING 198
SWIDTH 548 0
DWIDTH 8 0
BBX 8 15 0 -3
BITMAP
00
00
1F
1E
3C
2C
2F
6E
7C
6C
6F
6E
00
00
00
ENDCHAR

STARTCHAR Ccedilla
ENCODING 199
SWIDTH 548 0
DWIDTH 8 0
BBX 8 15 0 -3
BITMAP
00
00
0E
1B
30
60
60
60
60
60
33
1E
0C
18
70
ENDCHAR

STARTCHAR Egrave
ENCODING 200
SWIDTH 548 0
DWIDTH 8 0
BBX 8 15 0 -3
BITMAP
30
18
0C
0F
78
60
6F
78
60
60
6F
78
00
00
00
ENDCHAR

STARTCHAR Eacute
ENCODING 201
SWIDTH 548 0
DWIDTH 8 0
BBX 8 15 0 -3
BITMAP
0C
18
30
0F
78
60
6F
78
60
60
6F
78
00
00
00
ENDCHAR

STARTCHAR Ecircumflex
ENCODING 202
SWIDTH 548 0
DWIDTH 8 0
BBX 8 15 0 -3
BITMAP
0C
1E
30
0F
78
60
6F
78
60
60
6F
78
00
00
00
ENDCHAR

STARTCHAR Ediaeresis
ENCODING 203
SWIDTH 548 0
DWIDTH 8 0
BBX 8 15 0 -3
BITMAP
33
33
00
0F
78
60
6F
78
60
60
6F
78
00
00
00
ENDCHAR

STARTCHAR Igrave
ENCODING 204
SWIDTH 548 0
DWIDTH 8 0
BBX 8 15 0 -3
BITMAP
18
0C
06
0E
1C
0C
0C
0C
0C
0C
0E
1C
00
00
00
ENDCHAR

STARTCHAR Iacute
ENCODING 205
SWIDTH 548 0
DWIDTH 8 0
BBX 8 15 0 -3
BITMAP
06
0C
18
0E
1C
0C
0C
0C
0C
0C
0E
1C
00
00
00
ENDCHAR

STARTCHAR Icircumflex
ENCODING 206
SWIDTH 548 0
DWIDTH 8 0
BBX 8 15 0 -3
BITMAP
0C
1E
30
0E
1C
0C
0C
0C
0C
0C
0E
1C
00
00
00
ENDCHAR

STARTCHAR Idiaeresis
ENCODING 207
SWIDTH 548 0
DWIDTH 8 0
BBX 8 15 0 -3
BITMAP
33
33
00
0E
1C
0C
0C
0C
0C
0C
0E
1C
00
00
00
ENDCHAR

STARTCHAR ETH
ENCODING 208
SWIDTH 548 0
DWIDTH 8 0
BBX 8 15 0 -3
BITMAP
00
00
3C
36
33
33
7B
33
33
36
3C
38
00
00
00
ENDCHAR

STARTCHAR Ntilde
ENCODING 209
SWIDTH 548 0
DWIDTH 8 0
BBX 8 15 0 -3
BITMAP
00
3B
6E
00
63
73
7B
7B
6F
67
67
63
00
00
00
ENDCHAR

STARTCHAR Ograve
ENCODING 210
SWIDTH 548 0
DWIDTH 8 0
BBX 8 15 0 -3
BITMAP
18
0C
00
1E
33
63
63
63
63
63
66
3C
00
00
00
ENDCHAR

STARTCHAR Oacute
ENCODING 211
SWIDTH 548 0
DWIDTH 8 0
BBX 8 15 0 -3
BITMAP
06
0C
00
1E
33
63
63
63
63
63
66
3C
00
00
00
ENDCHAR

STARTCHAR Ocircumflex
ENCODING 212
SWIDTH 548 0
DWIDTH 8 0
BBX 8 15 0 -3
BITMAP
0C
1E
30
1E
33
63
63
63
63
63
66
3C
00
00
00
ENDCHAR

STARTCHAR Otilde
ENCODING 213
SWIDTH 548 0
DWIDTH 8 0
BBX 8 15 0 -3
BITMAP
00
3B
6E
1E
33
63
63
63
63
63
66
3C
00
00
00
ENDCHAR

STARTCHAR Odiaeresis
ENCODING 214
SWIDTH 548 0
DWIDTH 8 0
BBX 8 15 0 -3
BITMAP
33
33
00
1E
33
63
63
63
63
63
66
3C
00
00
00
ENDCHAR

STARTCHAR multiply
ENCODING 215
SWIDTH 548 0
DWIDTH 8 0
BBX 8 15 0 -3
BITMAP
00
00
00
00
00
66
3C
18
3C
66
00
00
00
00
00
ENDCHAR

STARTCHAR Ooblique
ENCODING 216
SWIDTH 548 0
DWIDTH 8 0
BBX 8 15 0 -3
BITMAP
00
06
1E
37
67
6F
6B
6B
7B
73
76
3C
30
00
00
ENDCHAR

STARTCHAR Ugrave
ENCODING 217
SWIDTH 548 0
DWIDTH 8 0
BBX 8 15 0 -3
BITMAP
30
18
0C
63
63
63
63
63
66
66
66
3C
00
00
00
ENDCHAR

STARTCHAR Uacute
ENCODING 218
SWIDTH 548 0
DWIDTH 8 0
BBX 8 15 0 -3
BITMAP
06
0C
18
63
63
63
63
63
66
66
66
3C
00
00
00
ENDCHAR

STARTCHAR Ucircumflex
ENCODING 219
SWIDTH 548 0
DWIDTH 8 0
BBX 8 15 0 -3
BITMAP
0C
1E
30
03
63
63
63
63
66
66
66
3C
00
00
00
ENDCHAR

STARTCHAR Udiaeresis
ENCODING 220
SWIDTH 548 0
DWIDTH 8 0
BBX 8 15 0 -3
BITMAP
33
33
00
63
63
63
63
63
66
66
66
3C
00
00
00
ENDCHAR

STARTCHAR Yacute
ENCODING 221
SWIDTH 548 0
DWIDTH 8 0
BBX 8 15 0 -3
BITMAP
06
0C
18
63
63
66
36
3C
18
18
18
18
00
00
00
ENDCHAR

STARTCHAR THORN
ENCODING 222
SWIDTH 548 0
DWIDTH 8 0
BBX 8 15 0 -3
BITMAP
00
00
60
60
6E
7B
63
63
66
7C
60
60
00
00
00
ENDCHAR

STARTCHAR ssharp
ENCODING 223
SWIDTH 548 0
DWIDTH 8 0
BBX 8 15 0 -3
BITMAP
00
00
0E
1B
73
62
6C
63
63
63
66
6C
00
00
00
ENDCHAR

STARTCHAR agrave
ENCODING 224
SWIDTH 548 0
DWIDTH 8 0
BBX 8 15 0 -3
BITMAP
00
18
0C
06
00
1E
33
0F
3B
63
6F
3B
00
00
00
ENDCHAR

STARTCHAR aacute
ENCODING 225
SWIDTH 548 0
DWIDTH 8 0
BBX 8 15 0 -3
BITMAP
00
06
0C
18
00
1E
33
0F
3B
63
6F
3B
00
00
00
ENDCHAR

STARTCHAR acircumflex
ENCODING 226
SWIDTH 548 0
DWIDTH 8 0
BBX 8 15 0 -3
BITMAP
0C
1E
33
60
00
1E
33
0F
3B
63
6F
3B
00
00
00
ENDCHAR

STARTCHAR atilde
ENCODING 227
SWIDTH 548 0
DWIDTH 8 0
BBX 8 15 0 -3
BITMAP
00
00
3B
6E
00
1E
33
0F
3B
63
6F
3B
00
00
00
ENDCHAR

STARTCHAR adiaeresis
ENCODING 228
SWIDTH 548 0
DWIDTH 8 0
BBX 8 15 0 -3
BITMAP
00
00
36
36
00
1E
33
0F
3B
63
6F
3B
00
00
00
ENDCHAR

STARTCHAR aring
ENCODING 229
SWIDTH 548 0
DWIDTH 8 0
BBX 8 15 0 -3
BITMAP
1C
36
36
1C
00
1E
33
0F
3B
63
6F
3B
00
00
00
ENDCHAR

STARTCHAR ae
ENCODING 230
SWIDTH 548 0
DWIDTH 8 0
BBX 8 15 0 -3
BITMAP
00
00
00
00
00
3E
6B
1B
3E
6C
6B
36
00
00
00
ENDCHAR

STARTCHAR ccedilla
ENCODING 231
SWIDTH 548 0
DWIDTH 8 0
BBX 8 15 0 -3
BITMAP
00
00
00
00
00
0E
1B
30
60
60
63
3E
0C
18
70
ENDCHAR

STARTCHAR egrave
ENCODING 232
SWIDTH 548 0
DWIDTH 8 0
BBX 8 15 0 -3
BITMAP
00
30
18
0C
00
1E
33
66
7C
60
63
3E
00
00
00
ENDCHAR

STARTCHAR eacute
ENCODING 233
SWIDTH 548 0
DWIDTH 8 0
BBX 8 15 0 -3
BITMAP
00
06
0C
18
00
1E
33
66
7C
60
63
3E
00
00
00
ENDCHAR

STARTCHAR ecircumflex
ENCODING 234
SWIDTH 548 0
DWIDTH 8 0
BBX 8 15 0 -3
BITMAP
0C
1E
33
60
00
1E
33
66
7C
60
63
3E
00
00
00
ENDCHAR

STARTCHAR ediaeresis
ENCODING 235
SWIDTH 548 0
DWIDTH 8 0
BBX 8 15 0 -3
BITMAP
00
00
33
33
00
1E
33
66
7C
60
63
3E
00
00
00
ENDCHAR

STARTCHAR igrave
ENCODING 236
SWIDTH 548 0
DWIDTH 8 0
BBX 8 15 0 -3
BITMAP
00
30
18
0C
00
0C
0C
0C
0C
0C
0C
0C
00
00
00
ENDCHAR

STARTCHAR iacute
ENCODING 237
SWIDTH 548 0
DWIDTH 8 0
BBX 8 15 0 -3
BITMAP
00
03
06
0C
00
0C
0C
0C
0C
0C
0C
0C
00
00
00
ENDCHAR

STARTCHAR icircumflex
ENCODING 238
SWIDTH 548 0
DWIDTH 8 0
BBX 8 15 0 -3
BITMAP
0C
1E
33
60
00
0C
0C
0C
0C
0C
0C
0C
00
00
00
ENDCHAR

STARTCHAR idiaeresis
ENCODING 239
SWIDTH 548 0
DWIDTH 8 0
BBX 8 15 0 -3
BITMAP
00
00
33
33
00
0C
0C
0C
0C
0C
0C
0C
00
00
00
ENDCHAR

STARTCHAR eth
ENCODING 240
SWIDTH 548 0
DWIDTH 8 0
BBX 8 15 0 -3
BITMAP
00
60
3C
78
0C
1E
33
63
63
63
66
3C
00
00
00
ENDCHAR

STARTCHAR ntilde
ENCODING 241
SWIDTH 548 0
DWIDTH 8 0
BBX 8 15 0 -3
BITMAP
00
00
3B
6E
00
6E
7B
73
63
63
63
63
00
00
00
ENDCHAR

STARTCHAR ograve
ENCODING 242
SWIDTH 548 0
DWIDTH 8 0
BBX 8 15 0 -3
BITMAP
00
30
18
0C
00
1E
33
63
63
63
66
3C
00
00
00
ENDCHAR

STARTCHAR oacute
ENCODING 243
SWIDTH 548 0
DWIDTH 8 0
BBX 8 15 0 -3
BITMAP
00
06
0C
18
00
1E
33
63
63
63
66
3C
00
00
00
ENDCHAR

STARTCHAR ocircumflex
ENCODING 244
SWIDTH 548 0
DWIDTH 8 0
BBX 8 15 0 -3
BITMAP
0C
1E
33
60
00
1E
33
63
63
63
66
3C
00
00
00
ENDCHAR

STARTCHAR otilde
ENCODING 245
SWIDTH 548 0
DWIDTH 8 0
BBX 8 15 0 -3
BITMAP
00
00
3B
6E
00
1E
33
63
63
63
66
3C
00
00
00
ENDCHAR

STARTCHAR odiaeresis
ENCODING 246
SWIDTH 548 0
DWIDTH 8 0
BBX 8 15 0 -3
BITMAP
00
00
33
33
00
1E
33
63
63
63
66
3C
00
00
00
ENDCHAR

STARTCHAR division
ENCODING 247
SWIDTH 548 0
DWIDTH 8 0
BBX 8 15 0 -3
BITMAP
00
00
00
00
18
18
00
7E
00
18
18
00
00
00
00
ENDCHAR

STARTCHAR oslash
ENCODING 248
SWIDTH 548 0
DWIDTH 8 0
BBX 8 15 0 -3
BITMAP
00
00
00
00
06
1E
37
6F
6B
7B
76
3C
30
00
00
ENDCHAR

STARTCHAR ugrave
ENCODING 249
SWIDTH 548 0
DWIDTH 8 0
BBX 8 15 0 -3
BITMAP
00
30
18
0C
00
63
63
63
63
67
6F
3B
00
00
00
ENDCHAR

STARTCHAR uacute
ENCODING 250
SWIDTH 548 0
DWIDTH 8 0
BBX 8 15 0 -3
BITMAP
00
06
0C
18
00
63
63
63
63
67
6F
3B
00
00
00
ENDCHAR

STARTCHAR ucircumflex
ENCODING 251
SWIDTH 548 0
DWIDTH 8 0
BBX 8 15 0 -3
BITMAP
0C
1E
33
60
00
63
63
63
63
67
6F
3B
00
00
00
ENDCHAR

STARTCHAR udiaeresis
ENCODING 252
SWIDTH 548 0
DWIDTH 8 0
BBX 8 15 0 -3
BITMAP
00
00
33
33
00
63
63
63
63
67
6F
3B
00
00
00
ENDCHAR

STARTCHAR yacute
ENCODING 253
SWIDTH 548 0
DWIDTH 8 0
BBX 8 15 0 -3
BITMAP
00
06
0C
18
00
63
63
63
63
63
36
1E
06
6C
38
ENDCHAR

STARTCHAR thorn
ENCODING 254
SWIDTH 548 0
DWIDTH 8 0
BBX 8 15 0 -3
BITMAP
00
00
00
60
60
6E
7B
63
63
63
66
7C
60
60
00
ENDCHAR

STARTCHAR ydiaeresis
ENCODING 255
SWIDTH 548 0
DWIDTH 8 0
BBX 8 15 0 -3
BITMAP
00
00
33
33
00
63
63
63
63
63
36
1E
06
6C
38
ENDCHAR

ENDFONT
